{
	"asset":{
		"generator":"Khronos glTF Blender I/O v3.6.27",
		"version":"2.0"
	},
	"extensionsUsed":[
		"KHR_materials_emissive_strength"
	],
	"scene":0,
	"scenes":[
		{
			"name":"Scene",
			"nodes":[
				0
			]
		}
	],
	"nodes":[
		{
			"mesh":0,
			"name":"Synthetic_Area_B_Frame_171x192x15cm.002",
			"rotation":[
				0,
				-0.6580728888511658,
				0.2587279975414276,
				0.7071067690849304
			],
			"translation":[
				-0.164947509765625,
				0.14821147918701172,
				-0.015870392322540283
			]
		}
	],
	"materials":[
		{
			"doubleSided":true,
			"name":"BLACK FRAME.002",
			"pbrMetallicRoughness":{
				"baseColorFactor":[
					0,
					0,
					0,
					1
				],
				"metallicFactor":0,
				"roughnessFactor":2.9000000953674316
			}
		},
		{
			"doubleSided":true,
			"emissiveFactor":[
				1,
				1,
				1
			],
			"emissiveTexture":{
				"index":0
			},
			"extensions":{
				"KHR_materials_emissive_strength":{
					"emissiveStrength":300
				}
			},
			"name":"Synthetic Area A Diffuse",
			"pbrMetallicRoughness":{
				"baseColorTexture":{
					"index":1
				},
				"metallicFactor":0,
				"roughnessFactor":0.5
			}
		}
	],
	"meshes":[
		{
			"name":"Synthetic_Area_A_Frame.008",
			"primitives":[
				{
					"attributes":{
						"POSITION":0,
						"NORMAL":1,
						"TEXCOORD_0":2
					},
					"indices":3,
					"material":0
				},
				{
					"attributes":{
						"POSITION":4,
						"NORMAL":5,
						"TEXCOORD_0":6
					},
					"indices":7,
					"material":1
				}
			]
		}
	],
	"textures":[
		{
			"sampler":0,
			"source":0
		},
		{
			"sampler":0,
			"source":0
		}
	],
	"images":[
		{
			"mimeType":"image/png",
			"name":"Synthetic_Area_B",
			"uri":"textures/Synthetic_Area_B.png"
		}
	],
	"accessors":[
		{
			"bufferView":0,
			"componentType":5126,
			"count":1547,
			"max":[
				0.8550000190734863,
				0.04325327277183533,
				0.9611415863037109
			],
			"min":[
				-0.8550000190734863,
				-0.5138819217681885,
				-0.9588594436645508
			],
			"type":"VEC3"
		},
		{
			"bufferView":1,
			"componentType":5126,
			"count":1547,
			"type":"VEC3"
		},
		{
			"bufferView":2,
			"componentType":5126,
			"count":1547,
			"type":"VEC2"
		},
		{
			"bufferView":3,
			"componentType":5123,
			"count":4170,
			"type":"SCALAR"
		},
		{
			"bufferView":4,
			"componentType":5126,
			"count":121,
			"max":[
				0.75,
				0.03875270485877991,
				0.85614013671875
			],
			"min":[
				-0.75,
				0.03875270485877991,
				-0.8538599014282227
			],
			"type":"VEC3"
		},
		{
			"bufferView":5,
			"componentType":5126,
			"count":121,
			"type":"VEC3"
		},
		{
			"bufferView":6,
			"componentType":5126,
			"count":121,
			"type":"VEC2"
		},
		{
			"bufferView":7,
			"componentType":5123,
			"count":600,
			"type":"SCALAR"
		}
	],
	"bufferViews":[
		{
			"buffer":0,
			"byteLength":18564,
			"byteOffset":0,
			"target":34962
		},
		{
			"buffer":0,
			"byteLength":18564,
			"byteOffset":18564,
			"target":34962
		},
		{
			"buffer":0,
			"byteLength":12376,
			"byteOffset":37128,
			"target":34962
		},
		{
			"buffer":0,
			"byteLength":8340,
			"byteOffset":49504,
			"target":34963
		},
		{
			"buffer":0,
			"byteLength":1452,
			"byteOffset":57844,
			"target":34962
		},
		{
			"buffer":0,
			"byteLength":1452,
			"byteOffset":59296,
			"target":34962
		},
		{
			"buffer":0,
			"byteLength":968,
			"byteOffset":60748,
			"target":34962
		},
		{
			"buffer":0,
			"byteLength":1200,
			"byteOffset":61716,
			"target":34963
		}
	],
	"samplers":[
		{
			"magFilter":9729,
			"minFilter":9987,
			"wrapS":33071,
			"wrapT":33071
		}
	],
	"buffers":[
		{
			"byteLength":62916,
			"uri":"scene.bin"
		}
	]
}
